<?xml version="1.0" encoding="UTF-8" standalone="no"?>
<!DOCTYPE svg PUBLIC "-//W3C//DTD SVG 1.1//EN" "http://www.w3.org/Graphics/SVG/1.1/DTD/svg11.dtd">
<svg width="100%" height="100%" viewBox="0 0 2000 2000" version="1.1" xmlns="http://www.w3.org/2000/svg" xmlns:xlink="http://www.w3.org/1999/xlink" xml:space="preserve" xmlns:serif="http://www.serif.com/" style="fill-rule:evenodd;clip-rule:evenodd;stroke-linecap:round;stroke-linejoin:round;stroke-miterlimit:1.5;">
    <g transform="matrix(0.501489,0,0,0.501489,201.914408,865.25428)">
        <clipPath id="_clip1">
            <path d="M1412.253,-579.845C1453.147,-474.689 1505.238,-407.019 1568.526,-376.836L1569.986,-375.375L1568.526,-375.375C1504.264,-343.244 1453.633,-281.904 1416.634,-191.353C1388.398,20.906 1317.32,190.323 1203.402,316.9C1085.589,443.476 945.868,506.764 784.24,506.764L763.793,506.764L766.714,1264.761C773.529,1330.97 784.727,1383.548 800.305,1422.494C815.884,1461.441 831.949,1489.19 848.501,1505.743C859.212,1519.374 869.435,1529.354 879.172,1535.683C888.909,1542.012 896.698,1546.393 902.54,1548.827C908.382,1551.261 911.79,1552.479 912.763,1552.479L912.763,1577.307L322.723,1577.307L322.723,1552.479C323.697,1552.479 327.835,1551.018 335.137,1548.097C342.44,1545.176 351.933,1539.334 363.617,1530.571C375.301,1521.808 387.472,1509.637 400.129,1494.059C418.629,1471.664 436.155,1435.396 452.707,1385.252C469.26,1335.108 477.536,1265.735 477.536,1177.131L477.536,499.461C478.509,498.488 478.509,490.942 477.536,476.824C476.562,462.706 472.181,444.936 464.391,423.516C457.576,403.069 444.918,380.431 426.418,355.603C407.919,330.774 380.169,307.163 343.17,284.769L343.17,283.308C380.169,260.914 407.919,237.789 426.418,213.935C444.918,190.08 457.576,168.416 464.391,148.943C472.181,128.496 476.562,111.456 477.536,97.825C478.509,84.194 478.509,77.378 477.536,77.378L477.536,-670.395C477.536,-758.999 469.26,-828.129 452.707,-877.786C436.155,-927.443 418.629,-963.468 400.129,-985.862C387.472,-1002.415 375.301,-1014.829 363.617,-1023.105C351.933,-1031.381 342.44,-1036.98 335.137,-1039.901C327.835,-1042.822 323.697,-1044.282 322.723,-1044.282L322.723,-1069.111C382.117,-1070.084 450.273,-1073.979 527.193,-1080.795C554.455,-1083.716 579.284,-1091.505 601.678,-1104.162C633.809,-1123.636 661.558,-1149.925 684.926,-1183.029L686.387,-1183.029C688.334,-1179.135 690.281,-1175.727 692.228,-1172.806C738.964,-1112.439 801.766,-1082.742 880.632,-1083.716L886.474,-1083.716C1030.577,-1088.584 1149.364,-1043.795 1242.835,-949.35C1328.518,-860.747 1384.99,-737.578 1412.253,-579.845ZM1139.14,-346.165C1139.14,-546.74 1112.121,-703.743 1058.083,-817.175C1004.044,-930.607 928.829,-987.323 832.436,-987.323C812.963,-987.323 796.167,-980.507 782.049,-966.876C767.931,-953.245 760.385,-936.205 759.411,-915.759C759.411,-910.89 758.924,-905.535 757.951,-899.693L763.793,426.437L787.161,426.437C900.106,426.437 987.005,359.984 1047.859,227.079C1108.713,94.174 1139.14,-96.908 1139.14,-346.165ZM2770.864,1358.233C2783.521,1413.731 2804.455,1457.546 2833.665,1489.677C2862.875,1521.808 2892.572,1541.768 2922.755,1549.558L2922.755,1577.307L2483.146,1577.307L2483.146,1575.846C2453.936,1381.114 2423.266,1132.343 2391.135,829.533C2376.53,697.115 2361.925,567.131 2347.32,439.581C2341.478,387.977 2321.275,341.241 2286.71,299.374C2252.145,257.506 2202.731,234.138 2138.469,229.27C2121.917,231.217 2106.825,232.191 2093.194,232.191L2033.314,232.191L2036.235,1267.682C2043.05,1333.891 2053.761,1385.739 2068.366,1423.225C2082.971,1460.711 2098.062,1488.217 2113.641,1505.743C2124.351,1517.427 2134.331,1526.433 2143.581,1532.762C2152.831,1539.091 2160.133,1543.472 2165.489,1545.906C2170.844,1548.34 2174.008,1549.558 2174.982,1549.558L2174.982,1577.307L1609.77,1577.307L1609.77,1549.558C1610.744,1549.558 1614.638,1548.097 1621.454,1545.176C1628.27,1542.255 1637.276,1536.657 1648.473,1528.38C1659.67,1520.104 1671.598,1508.177 1684.255,1492.598C1702.755,1470.204 1719.794,1434.178 1735.373,1384.522C1750.951,1334.865 1758.741,1265.735 1758.741,1177.131L1758.741,531.592C1758.741,531.592 1758.01,522.829 1756.55,505.303C1755.089,487.777 1749.978,466.357 1741.215,441.042C1734.399,416.7 1721.498,390.411 1702.512,362.175C1683.525,333.939 1656.506,308.623 1621.454,286.229L1619.994,286.229L1621.454,284.769C1657.48,266.269 1684.742,244.605 1703.242,219.777C1721.741,194.948 1734.886,171.824 1742.675,150.403C1750.464,127.035 1755.089,107.562 1756.55,91.983C1758.01,76.405 1758.741,68.128 1758.741,67.155L1758.741,-639.725C1758.741,-734.17 1750.708,-808.169 1734.642,-861.72C1718.577,-915.272 1701.781,-954.705 1684.255,-980.02C1671.598,-997.546 1659.67,-1011.178 1648.473,-1020.914C1637.276,-1030.651 1628.27,-1037.223 1621.454,-1040.631C1614.638,-1044.039 1610.744,-1045.743 1609.77,-1045.743L1609.77,-1072.032L1611.231,-1072.032C1666.729,-1073.005 1731.478,-1076.9 1805.476,-1083.716C1831.765,-1086.637 1855.62,-1094.426 1877.041,-1107.083C1907.224,-1126.557 1933.513,-1152.846 1955.907,-1185.95L1957.368,-1185.95C1959.315,-1182.056 1961.749,-1178.648 1964.67,-1175.727C2008.485,-1115.36 2068.366,-1085.663 2144.311,-1086.637L2166.219,-1086.637C2297.663,-1086.637 2412.556,-1038.44 2510.896,-942.047C2599.499,-850.523 2656.945,-736.604 2683.234,-600.292C2718.286,-524.346 2761.127,-474.202 2811.758,-449.861L2813.218,-448.4L2811.758,-448.4C2751.391,-417.243 2704.168,-358.823 2670.09,-273.141C2617.512,-75.487 2513.33,69.589 2357.544,162.087C2455.884,167.929 2523.553,191.297 2560.553,232.191C2596.578,267.243 2621.407,335.399 2635.038,436.66C2650.616,547.658 2666.195,661.09 2681.774,776.956C2708.063,997.977 2737.759,1191.736 2770.864,1358.233ZM2392.596,-445.479C2392.596,-600.292 2363.873,-731.736 2306.426,-839.813C2248.007,-940.1 2178.876,-990.244 2099.036,-990.244C2079.563,-990.244 2063.254,-983.428 2050.109,-969.797C2036.965,-956.166 2029.419,-939.126 2027.472,-918.68L2027.472,-902.614L2031.853,151.864L2096.115,151.864C2190.56,151.864 2263.585,99.773 2315.189,-4.409C2366.793,-108.591 2392.596,-255.615 2392.596,-445.479Z" clip-rule="nonzero"/>
        </clipPath>
        <g clip-path="url(#_clip1)">
            <g transform="matrix(2991.094434,0,0,2991.094434,2919.834394,1298.352366)">
            </g>
            <text x="221.949px" y="1298.352px" style="font-family:'Wednesday';font-size:2991.094px;fill:white;">P<tspan x="1514.838px " y="1298.352px ">R</tspan></text>
            <g id="Blue-Gradient" transform="matrix(1.994063,0,0,1.994063,-402.630041,-1725.371507)">
                <rect x="0" y="0" width="2000" height="2000" style="fill:url(#_Linear2);stroke:black;stroke-width:2.22px;"/>
            </g>
        </g>
    </g>
    <defs>
        <linearGradient id="_Linear2" x1="0" y1="0" x2="1" y2="0" gradientUnits="userSpaceOnUse" gradientTransform="matrix(2000,2000,-2000,2000,0,0)"><stop offset="0" style="stop-color:rgb(66,160,252);stop-opacity:1"/><stop offset="1" style="stop-color:rgb(30,108,238);stop-opacity:1"/></linearGradient>
    </defs>
</svg>
