<?xml version="1.0" encoding="UTF-8" standalone="no"?><!DOCTYPE svg PUBLIC "-//W3C//DTD SVG 1.1//EN" "http://www.w3.org/Graphics/SVG/1.1/DTD/svg11.dtd"><svg width="100%" height="100%" viewBox="0 0 240 240" version="1.1" xmlns="http://www.w3.org/2000/svg" xmlns:xlink="http://www.w3.org/1999/xlink" xml:space="preserve" xmlns:serif="http://www.serif.com/" style="fill-rule:evenodd;clip-rule:evenodd;stroke-linejoin:round;stroke-miterlimit:2;"><path d="M209.76,114.958l0,9.364c0,2.69 -2.184,4.874 -4.874,4.874l-170.013,0c-2.69,0 -4.874,-2.184 -4.874,-4.874l0,-9.364c0,-2.69 2.184,-4.874 4.874,-4.874l170.013,0c2.69,0 4.874,2.184 4.874,4.874Z" style="fill:#111;"/><path d="M209.88,65.278l0,9.364c0,2.69 -2.184,4.874 -4.874,4.874l-170.013,0c-2.69,0 -4.874,-2.184 -4.874,-4.874l0,-9.364c0,-2.69 2.184,-4.874 4.874,-4.874l170.013,0c2.69,0 4.874,2.184 4.874,4.874Z" style="fill:#111;"/><path d="M209.88,165.358l0,9.364c0,2.69 -2.184,4.874 -4.874,4.874l-170.013,0c-2.69,0 -4.874,-2.184 -4.874,-4.874l0,-9.364c0,-2.69 2.184,-4.874 4.874,-4.874l170.013,0c2.69,0 4.874,2.184 4.874,4.874Z" style="fill:#111;"/></svg>